<svg width="28" height="28" viewBox="0 0 28 28" fill="none" xmlns="http://www.w3.org/2000/svg">
<g clip-path="url(#clip0)">
<path d="M26.4528 0.00244141H1.54536C0.692462 0.00244141 0 0.693521 0 1.5478V26.4552C0 27.3095 0.692462 28.0015 1.54536 28.0015H14.9548V17.1586H11.3062V12.9324H14.9548V9.81586C14.9548 6.20003 17.1626 4.23006 20.3889 4.23006C21.9357 4.23006 23.262 4.34578 23.6488 4.39603V8.17553L21.411 8.17645C19.6568 8.17645 19.3184 9.01045 19.3184 10.2336V12.931H23.5036L22.9564 17.1568H19.3179V28.0001H26.4523C27.3062 28.0001 27.9991 27.3072 27.9991 26.4552V1.54688C27.9986 0.693521 27.3066 0.00244141 26.4528 0.00244141Z" fill="#676ED7"/>
</g>
<defs>
<clipPath id="clip0">
<rect width="28" height="28" fill="white"/>
</clipPath>
</defs>
</svg>
