<svg width="28" height="29" viewBox="0 0 28 29" fill="none" xmlns="http://www.w3.org/2000/svg">
<g clip-path="url(#clip0)">
<path d="M1.74991 1.9732C-0.450426 4.34033 -9.30503e-05 6.85487 -9.30503e-05 14.494C-9.30503e-05 20.8377 -1.06876 27.1972 4.52424 28.6943C6.27074 29.1595 21.7454 29.1595 23.4896 28.6919C25.8182 28.0696 27.7129 26.1133 27.9719 22.7022C28.0081 22.2261 28.0081 6.77029 27.9707 6.28453C27.6954 2.65108 25.5359 0.557034 22.6904 0.132909C22.0382 0.0350342 21.9076 0.00603415 18.5616 -7.51019e-06C6.69307 0.00603415 4.09141 -0.541341 1.74991 1.9732Z" fill="url(#paint0_linear)"/>
<path d="M13.9978 3.79297C9.76161 3.79297 5.73894 3.40268 4.20244 7.48685C3.56778 9.17368 3.65994 11.3644 3.65994 14.5012C3.65994 17.2538 3.57478 19.8408 4.20244 21.5144C5.73544 25.601 9.79078 25.2095 13.9954 25.2095C18.0519 25.2095 22.2344 25.6469 23.7896 21.5144C24.4254 19.8106 24.3321 17.6526 24.3321 14.5012C24.3321 10.318 24.5549 7.61735 22.5961 5.58976C20.6128 3.5356 17.9306 3.79297 13.9931 3.79297H13.9978ZM13.0714 5.72268C21.9078 5.70818 23.0324 4.69077 22.4118 18.8246C22.1913 23.8235 18.5163 23.2749 13.9989 23.2749C5.76227 23.2749 5.52544 23.0308 5.52544 14.4964C5.52544 5.86285 6.17878 5.72751 13.0714 5.72026V5.72268ZM19.5161 7.50014C18.8313 7.50014 18.2759 8.07531 18.2759 8.7846C18.2759 9.49389 18.8313 10.0691 19.5161 10.0691C20.2009 10.0691 20.7563 9.49389 20.7563 8.7846C20.7563 8.07531 20.2009 7.50014 19.5161 7.50014ZM13.9978 9.0021C11.0659 9.0021 8.68944 11.4647 8.68944 14.5012C8.68944 17.5378 11.0659 19.9991 13.9978 19.9991C16.9296 19.9991 19.3049 17.5378 19.3049 14.5012C19.3049 11.4647 16.9296 9.0021 13.9978 9.0021ZM13.9978 10.9318C18.5536 10.9318 18.5594 18.0706 13.9978 18.0706C9.44311 18.0706 9.43611 10.9318 13.9978 10.9318Z" fill="white"/>
</g>
<defs>
<linearGradient id="paint0_linear" x1="1.8036" y1="27.1477" x2="28.6046" y2="4.75166" gradientUnits="userSpaceOnUse">
<stop stop-color="#FFDD55"/>
<stop offset="0.5" stop-color="#FF543E"/>
<stop offset="1" stop-color="#C837AB"/>
</linearGradient>
<clipPath id="clip0">
<rect width="28" height="29" fill="white"/>
</clipPath>
</defs>
</svg>
