<svg width="33" height="28" viewBox="0 0 33 28" fill="none" xmlns="http://www.w3.org/2000/svg">
<path d="M31.5975 2.9C30.7024 0.97 29.7309 0.615 27.753 0.48C25.7771 0.3175 20.8086 0.25 16.5041 0.25C12.1914 0.25 7.22081 0.3175 5.247 0.4775C3.27319 0.615 2.29969 0.9675 1.39631 2.9C0.474375 4.8275 0 8.1475 0 13.9925C0 13.9975 0 14 0 14C0 14.005 0 14.0075 0 14.0075V14.0125C0 19.8325 0.474375 23.1775 1.39631 25.085C2.29969 27.015 3.27112 27.365 5.24494 27.5275C7.22081 27.6675 12.1914 27.75 16.5041 27.75C20.8086 27.75 25.7771 27.6675 27.7551 27.53C29.733 27.3675 30.7044 27.0175 31.5996 25.0875C32.5298 23.18 33 19.835 33 14.015C33 14.015 33 14.0075 33 14.0025C33 14.0025 33 13.9975 33 13.995C33 8.1475 32.5298 4.8275 31.5975 2.9Z" fill="#F44336"/>
<path d="M12.375 21.5V6.5L22.6875 14L12.375 21.5Z" fill="#FAFAFA"/>
</svg>
